<svg width="642" height="298" viewBox="0 0 642 298" fill="none" xmlns="http://www.w3.org/2000/svg">
<path d="M72.145 56.705C78.0483 56.705 82.6867 58.66 86.06 62.57C89.4333 66.48 91.12 71.8083 91.12 78.555C91.12 82.1583 90.6217 85.9533 89.625 89.94C87.325 99.4467 83.0317 106.692 76.745 111.675C70.4583 116.582 63.175 119.035 54.895 119.035C49.605 119.035 45.005 117.923 41.095 115.7L37.415 128.005C37.1083 128.848 36.955 129.653 36.955 130.42C36.955 131.263 37.1467 131.953 37.53 132.49C37.9133 133.103 38.4117 133.678 39.025 134.215C39.6383 134.828 40.0217 135.327 40.175 135.71C40.405 136.093 40.4433 136.553 40.29 137.09C39.9833 138.087 39.255 138.777 38.105 139.16C36.955 139.62 35.1917 139.85 32.815 139.85H6.48C4.48667 139.85 3.06833 139.505 2.225 138.815C1.305 138.202 1.03667 137.397 1.42 136.4C1.57333 135.787 1.84167 135.288 2.225 134.905C2.60833 134.522 3.145 134.177 3.835 133.87C4.985 133.103 5.905 132.298 6.595 131.455C7.285 130.688 7.89833 129.423 8.435 127.66L25.225 72.575C25.455 71.885 25.57 71.31 25.57 70.85C25.57 70.0067 25.3783 69.355 24.995 68.895C24.6117 68.3583 24.0367 67.8217 23.27 67.285C22.5033 66.6717 21.9667 66.135 21.66 65.675C21.3533 65.215 21.315 64.6017 21.545 63.835C22.005 62.0717 24.42 60.5383 28.79 59.235C33.16 57.855 37.7217 57.165 42.475 57.165C45.8483 57.165 48.6083 58.0083 50.755 59.695C52.9783 61.3817 54.2433 63.72 54.55 66.71C59.7633 60.04 65.6283 56.705 72.145 56.705ZM58.805 90.86C60.645 84.0367 61.565 79.3217 61.565 76.715C61.565 75.105 61.2967 74.07 60.76 73.61C60.3 73.0733 59.61 72.805 58.69 72.805C58 72.805 57.1183 73.15 56.045 73.84C54.9717 74.4533 53.8983 75.5267 52.825 77.06L43.74 107.19C44.66 108.11 45.7717 108.57 47.075 108.57C49.145 108.57 51.1 107.42 52.94 105.12C54.8567 102.743 56.8117 97.99 58.805 90.86Z" fill="#1F62AE"/>
<path d="M199.13 106.55V113.48H163.22V106.55H199.13Z" fill="white"/>
<path d="M199.13 106.55H200.13V105.55H199.13V106.55ZM199.13 113.48V114.48H200.13V113.48H199.13ZM163.22 113.48H162.22V114.48H163.22V113.48ZM163.22 106.55V105.55H162.22V106.55H163.22ZM198.13 106.55V113.48H200.13V106.55H198.13ZM199.13 112.48H163.22V114.48H199.13V112.48ZM164.22 113.48V106.55H162.22V113.48H164.22ZM163.22 107.55H199.13V105.55H163.22V107.55Z" fill="#1F62AE"/>
<path d="M319.985 94.495C319.985 101.318 317.608 108.295 312.855 115.425C308.102 122.555 302.083 128.458 294.8 133.135C287.593 137.735 280.502 140.035 273.525 140.035C268.005 140.035 263.328 139.077 259.495 137.16C255.662 135.243 253.17 132.483 252.02 128.88C249.183 132.33 246.04 134.937 242.59 136.7C239.14 138.463 235.537 139.345 231.78 139.345C226.567 139.345 222.312 138.08 219.015 135.55C215.795 132.943 214.185 129.148 214.185 124.165C214.185 121.558 214.607 118.875 215.45 116.115L221.89 93.575C222.043 92.9617 222.12 92.5017 222.12 92.195C222.12 91.4283 221.928 90.7767 221.545 90.24C221.162 89.7033 220.625 89.1283 219.935 88.515C218.785 87.5183 218.21 86.6367 218.21 85.87C218.133 84.7967 218.785 83.6467 220.165 82.42C221.545 81.1933 223.462 80.1967 225.915 79.43C228.445 78.5867 231.282 78.165 234.425 78.165C239.562 78.165 243.548 79.43 246.385 81.96C249.298 84.4133 250.755 87.6333 250.755 91.62C250.755 93.3833 250.448 95.3 249.835 97.37L243.97 116.92C243.663 117.993 243.51 118.722 243.51 119.105C243.51 120.102 243.778 120.868 244.315 121.405C244.928 121.942 245.733 122.21 246.73 122.21C248.11 122.21 249.26 121.75 250.18 120.83C251.177 119.833 252.135 118.262 253.055 116.115L259.61 93.575C259.763 92.9617 259.84 92.5017 259.84 92.195C259.84 91.4283 259.648 90.7767 259.265 90.24C258.882 89.7033 258.345 89.1283 257.655 88.515C256.505 87.5183 255.93 86.6367 255.93 85.87C255.853 84.7967 256.505 83.6467 257.885 82.42C259.265 81.1933 261.182 80.1967 263.635 79.43C266.165 78.5867 269.002 78.165 272.145 78.165C277.358 78.165 281.383 79.3917 284.22 81.845C287.057 84.2983 288.475 87.5567 288.475 91.62C288.475 93.23 288.168 95.1467 287.555 97.37L280.08 121.98C279.927 122.363 279.85 122.938 279.85 123.705C279.85 124.702 280.195 125.468 280.885 126.005C281.575 126.542 282.533 126.81 283.76 126.81C285.447 126.81 287.402 126.082 289.625 124.625C291.925 123.092 294.148 120.945 296.295 118.185C298.518 115.348 300.32 112.013 301.7 108.18C298.633 105.497 296.448 102.852 295.145 100.245C293.918 97.6383 293.305 94.955 293.305 92.195C293.305 88.285 294.378 84.9883 296.525 82.305C298.672 79.545 301.777 78.165 305.84 78.165C309.903 78.165 313.277 79.6217 315.96 82.535C318.643 85.4483 319.985 89.435 319.985 94.495ZM490.154 78.165C494.448 78.165 497.859 79.4683 500.389 82.075C502.996 84.6817 504.299 87.9017 504.299 91.735C504.299 93.1917 504.146 94.5333 503.839 95.76C503.073 98.9033 501.616 101.318 499.469 103.005C497.323 104.692 494.754 105.535 491.764 105.535C488.851 105.535 486.628 104.845 485.094 103.465C483.638 102.085 482.334 100.245 481.184 97.945C480.571 96.6417 479.996 95.6833 479.459 95.07C478.923 94.4567 478.309 94.15 477.619 94.15C476.853 94.15 476.163 94.4567 475.549 95.07C475.013 95.6833 474.514 96.7567 474.054 98.29L465.199 127.04C465.046 127.423 464.969 127.998 464.969 128.765C464.969 129.762 465.238 130.605 465.774 131.295C466.388 131.908 467.193 132.522 468.189 133.135C469.109 133.748 469.723 134.247 470.029 134.63C470.336 135.013 470.451 135.512 470.374 136.125C470.221 137.122 469.646 137.85 468.649 138.31C467.729 138.77 466.119 139 463.819 139H434.379C432.386 139 430.968 138.693 430.124 138.08C429.204 137.39 428.859 136.508 429.089 135.435C429.396 134.515 430.201 133.71 431.504 133.02C432.654 132.407 433.613 131.678 434.379 130.835C435.146 129.992 435.798 128.65 436.334 126.81L446.569 93.575C446.723 93.1917 446.799 92.655 446.799 91.965C446.799 91.1217 446.608 90.47 446.224 90.01C445.918 89.55 445.381 88.975 444.614 88.285C443.848 87.6717 443.311 87.135 443.004 86.675C442.698 86.215 442.659 85.6017 442.889 84.835C443.349 83.0717 445.764 81.5383 450.134 80.235C454.504 78.855 459.066 78.165 463.819 78.165C466.963 78.165 469.569 78.8933 471.639 80.35C473.709 81.73 475.051 83.7233 475.664 86.33C479.344 80.8867 484.174 78.165 490.154 78.165ZM567.358 78.165C571.728 78.165 575.216 79.3917 577.823 81.845C580.506 84.2217 581.848 87.135 581.848 90.585C581.848 94.265 580.736 97.14 578.513 99.21C576.29 101.28 573.376 102.315 569.773 102.315C566.553 102.315 564.061 101.51 562.298 99.9C560.535 98.2133 559.691 96.335 559.768 94.265C559.001 94.1117 558.35 94.4183 557.813 95.185C557.276 95.9517 556.701 97.4467 556.088 99.67C555.705 101.127 554.976 102.468 553.903 103.695C559.116 104.078 562.988 105.267 565.518 107.26C568.048 109.253 569.313 111.822 569.313 114.965C569.313 116.498 569.045 118.032 568.508 119.565L567.588 123.13C567.435 123.513 567.358 124.012 567.358 124.625C567.358 125.698 567.856 126.235 568.853 126.235C569.773 126.235 570.54 125.852 571.153 125.085C571.843 124.242 572.303 123.82 572.533 123.82C572.916 123.82 573.223 124.088 573.453 124.625C573.683 125.085 573.798 125.66 573.798 126.35C573.875 128.573 573.185 130.758 571.728 132.905C570.348 134.975 568.201 136.7 565.288 138.08C562.451 139.383 559.001 140.035 554.938 140.035C550.031 140.035 545.93 138.808 542.633 136.355C539.413 133.902 537.803 130.682 537.803 126.695C537.803 125.238 538.11 123.59 538.723 121.75L540.908 116C541.291 114.62 541.483 113.623 541.483 113.01C541.483 112.013 541.138 111.285 540.448 110.825C539.835 110.365 538.838 110.135 537.458 110.135H535.158L529.983 127.04C529.753 127.96 529.638 128.765 529.638 129.455C529.638 130.452 529.83 131.257 530.213 131.87C530.596 132.407 531.133 132.943 531.823 133.48C532.36 134.017 532.743 134.477 532.973 134.86C533.203 135.167 533.241 135.588 533.088 136.125C532.705 137.122 531.938 137.85 530.788 138.31C529.638 138.77 527.875 139 525.498 139H499.278C497.285 139 495.828 138.693 494.908 138.08C493.988 137.39 493.681 136.508 493.988 135.435C494.295 134.515 495.1 133.71 496.403 133.02C497.553 132.407 498.511 131.678 499.278 130.835C500.045 129.992 500.696 128.65 501.233 126.81L518.713 69.425C518.943 68.735 519.058 68.16 519.058 67.7C519.058 66.8567 518.828 66.1667 518.368 65.63C517.985 65.0933 517.448 64.5567 516.758 64.02C515.991 63.4067 515.416 62.87 515.033 62.41C514.726 61.95 514.688 61.3367 514.918 60.57C515.378 58.8067 517.793 57.2733 522.163 55.97C526.533 54.6667 531.095 54.015 535.848 54.015C540.295 54.015 543.553 54.8583 545.623 56.545C547.693 58.155 548.728 60.4167 548.728 63.33C548.728 65.0933 548.46 66.78 547.923 68.39L537.918 101.05H541.713C543.246 101.05 544.473 100.59 545.393 99.67C546.39 98.75 547.156 97.4083 547.693 95.645C549.61 89.9717 552.101 85.64 555.168 82.65C558.235 79.66 562.298 78.165 567.358 78.165Z" fill="#1F62AE"/>
<path d="M125.245 84.165C129.692 84.165 132.95 85.0083 135.02 86.695C137.09 88.3817 138.125 90.6817 138.125 93.595C138.125 95.3583 137.857 97.045 137.32 98.655L126.74 133.04C126.51 133.96 126.395 134.765 126.395 135.455C126.395 136.452 126.587 137.257 126.97 137.87C127.353 138.407 127.89 138.943 128.58 139.48C129.117 140.017 129.5 140.477 129.73 140.86C129.96 141.167 129.998 141.588 129.845 142.125C129.462 143.122 128.695 143.85 127.545 144.31C126.395 144.77 124.632 145 122.255 145H96.035C94.0417 145 92.585 144.693 91.665 144.08C90.745 143.39 90.4383 142.508 90.745 141.435C91.0517 140.515 91.8567 139.71 93.16 139.02C94.31 138.407 95.2683 137.678 96.035 136.835C96.8017 135.992 97.4533 134.65 97.99 132.81L107.995 99.575C108.225 98.885 108.34 98.31 108.34 97.85C108.34 97.0067 108.148 96.355 107.765 95.895C107.382 95.3583 106.807 94.8217 106.04 94.285C105.273 93.6717 104.737 93.135 104.43 92.675C104.123 92.215 104.085 91.6017 104.315 90.835C104.775 89.0717 107.19 87.5383 111.56 86.235C115.93 84.855 120.492 84.165 125.245 84.165ZM132.95 58.75C135.94 58.75 138.432 59.7467 140.425 61.74C142.418 63.6567 143.415 66.0333 143.415 68.87C143.415 70.8633 142.878 72.8183 141.805 74.735C140.808 76.6517 139.352 78.2233 137.435 79.45C135.595 80.6 133.525 81.175 131.225 81.175C128.312 81.175 125.858 80.2167 123.865 78.3C121.948 76.3067 120.952 73.8533 120.875 70.94C120.875 69.0233 121.373 67.145 122.37 65.305C123.367 63.3883 124.785 61.8167 126.625 60.59C128.465 59.3633 130.573 58.75 132.95 58.75Z" fill="white"/>
<path d="M137.32 98.655L136.371 98.3388L136.368 98.3498L136.364 98.3609L137.32 98.655ZM126.74 133.04L125.784 132.746L125.776 132.771L125.77 132.797L126.74 133.04ZM126.97 137.87L126.122 138.4L126.138 138.426L126.156 138.451L126.97 137.87ZM128.58 139.48L129.287 138.773L129.243 138.729L129.194 138.691L128.58 139.48ZM129.73 140.86L128.873 141.374L128.899 141.419L128.93 141.46L129.73 140.86ZM129.845 142.125L130.778 142.484L130.794 142.442L130.807 142.4L129.845 142.125ZM127.545 144.31L127.916 145.238L127.916 145.238L127.545 144.31ZM91.665 144.08L91.065 144.88L91.0872 144.897L91.1103 144.912L91.665 144.08ZM90.745 141.435L89.7963 141.119L89.7894 141.139L89.7835 141.16L90.745 141.435ZM93.16 139.02L93.6279 139.904L93.6306 139.902L93.16 139.02ZM96.035 136.835L95.2951 136.162L96.035 136.835ZM97.99 132.81L97.0324 132.522L97.03 132.53L97.99 132.81ZM107.995 99.575L107.046 99.2588L107.042 99.2727L107.037 99.2867L107.995 99.575ZM107.765 95.895L106.951 96.4762L106.973 96.5066L106.997 96.5352L107.765 95.895ZM106.04 94.285L105.415 95.0659L105.44 95.0859L105.467 95.1042L106.04 94.285ZM104.43 92.675L103.598 93.2297L103.598 93.2297L104.43 92.675ZM104.315 90.835L105.273 91.1223L105.278 91.105L105.283 91.0874L104.315 90.835ZM111.56 86.235L111.846 87.1933L111.853 87.191L111.861 87.1886L111.56 86.235ZM140.425 61.74L139.718 62.4471L139.725 62.454L139.732 62.4608L140.425 61.74ZM141.805 74.735L140.932 74.2464L140.925 74.2599L140.918 74.2736L141.805 74.735ZM137.435 79.45L137.965 80.298L137.974 80.2923L137.435 79.45ZM123.865 78.3L123.144 78.9931L123.158 79.0072L123.172 79.0208L123.865 78.3ZM120.875 70.94H119.875V70.9531L119.875 70.9663L120.875 70.94ZM122.37 65.305L123.249 65.7813L123.253 65.7738L123.257 65.7664L122.37 65.305ZM126.625 60.59L127.18 61.422L127.18 61.422L126.625 60.59ZM125.245 85.165C129.602 85.165 132.582 85.9982 134.388 87.4702L135.652 85.9198C133.318 84.0185 129.781 83.165 125.245 83.165V85.165ZM134.388 87.4702C136.202 88.9481 137.125 90.9511 137.125 93.595H139.125C139.125 90.4122 137.978 87.8152 135.652 85.9198L134.388 87.4702ZM137.125 93.595C137.125 95.2551 136.873 96.8347 136.371 98.3388L138.269 98.9712C138.841 97.2553 139.125 95.4616 139.125 93.595H137.125ZM136.364 98.3609L125.784 132.746L127.696 133.334L138.276 98.9491L136.364 98.3609ZM125.77 132.797C125.527 133.769 125.395 134.659 125.395 135.455H127.395C127.395 134.871 127.493 134.151 127.71 133.283L125.77 132.797ZM125.395 135.455C125.395 136.571 125.609 137.578 126.122 138.4L127.818 137.34C127.565 136.935 127.395 136.332 127.395 135.455H125.395ZM126.156 138.451C126.611 139.087 127.223 139.691 127.966 140.269L129.194 138.691C128.557 138.195 128.096 137.726 127.784 137.289L126.156 138.451ZM127.873 140.187C128.386 140.7 128.704 141.093 128.873 141.374L130.587 140.346C130.296 139.86 129.847 139.333 129.287 138.773L127.873 140.187ZM128.93 141.46C128.922 141.45 128.931 141.451 128.935 141.497C128.94 141.553 128.936 141.665 128.883 141.85L130.807 142.4C131.005 141.706 131.022 140.916 130.53 140.26L128.93 141.46ZM128.912 141.766C128.644 142.461 128.11 143.007 127.174 143.382L127.916 145.238C129.28 144.693 130.279 143.783 130.778 142.484L128.912 141.766ZM127.174 143.382C126.206 143.769 124.6 144 122.255 144V146C124.664 146 126.584 145.771 127.916 145.238L127.174 143.382ZM122.255 144H96.035V146H122.255V144ZM96.035 144C94.1015 144 92.8896 143.695 92.2197 143.248L91.1103 144.912C92.2804 145.692 93.9818 146 96.035 146V144ZM92.265 143.28C91.927 143.026 91.7637 142.786 91.6895 142.573C91.6162 142.362 91.5984 142.088 91.7065 141.71L89.7835 141.16C89.5849 141.855 89.5671 142.559 89.8005 143.23C90.033 143.898 90.483 144.444 91.065 144.88L92.265 143.28ZM91.6937 141.751C91.8854 141.176 92.4363 140.535 93.6279 139.904L92.6921 138.136C91.277 138.885 90.2179 139.854 89.7963 141.119L91.6937 141.751ZM93.6306 139.902C94.8674 139.243 95.921 138.447 96.7749 137.508L95.2951 136.162C94.6157 136.91 93.7526 137.571 92.6894 138.138L93.6306 139.902ZM96.7749 137.508C97.691 136.5 98.3961 134.989 98.95 133.09L97.03 132.53C96.5106 134.311 95.9124 135.483 95.2951 136.162L96.7749 137.508ZM98.9476 133.098L108.953 99.8633L107.037 99.2867L97.0324 132.522L98.9476 133.098ZM108.944 99.8912C109.19 99.1513 109.34 98.4612 109.34 97.85H107.34C107.34 98.1587 107.26 98.6187 107.046 99.2588L108.944 99.8912ZM109.34 97.85C109.34 96.867 109.117 95.9556 108.533 95.2548L106.997 96.5352C107.179 96.7544 107.34 97.1463 107.34 97.85H109.34ZM108.579 95.3138C108.108 94.6548 107.437 94.0425 106.613 93.4658L105.467 95.1042C106.176 95.6008 106.655 96.0618 106.951 96.4762L108.579 95.3138ZM106.665 93.5041C105.926 92.9134 105.484 92.4528 105.262 92.1203L103.598 93.2297C103.99 93.8172 104.62 94.4299 105.415 95.0659L106.665 93.5041ZM105.262 92.1203C105.184 92.0038 105.089 91.7357 105.273 91.1223L103.357 90.5477C103.081 91.4676 103.062 92.4262 103.598 93.2297L105.262 92.1203ZM105.283 91.0874C105.421 90.5577 105.897 89.912 107.007 89.2067C108.105 88.5097 109.703 87.8323 111.846 87.1933L111.274 85.2767C109.047 85.9411 107.252 86.682 105.935 87.5183C104.631 88.3464 103.669 89.349 103.347 90.5826L105.283 91.0874ZM111.861 87.1886C116.13 85.8405 120.59 85.165 125.245 85.165V83.165C120.393 83.165 115.73 83.8695 111.259 85.2814L111.861 87.1886ZM132.95 59.75C135.693 59.75 137.924 60.6536 139.718 62.4471L141.132 61.0329C138.939 58.8398 136.187 57.75 132.95 57.75V59.75ZM139.732 62.4608C141.524 64.1835 142.415 66.2974 142.415 68.87H144.415C144.415 65.7692 143.313 63.1298 141.118 61.0192L139.732 62.4608ZM142.415 68.87C142.415 70.6752 141.931 72.4634 140.932 74.2464L142.678 75.2236C143.826 73.1733 144.415 71.0515 144.415 68.87H142.415ZM140.918 74.2736C140.006 76.0267 138.673 77.4702 136.896 78.6077L137.974 80.2923C140.03 78.9765 141.61 77.2767 142.692 75.1964L140.918 74.2736ZM136.905 78.602C135.234 79.6466 133.349 80.175 131.225 80.175V82.175C133.701 82.175 135.956 81.5534 137.965 80.298L136.905 78.602ZM131.225 80.175C128.555 80.175 126.354 79.3064 124.558 77.5792L123.172 79.0208C125.362 81.1269 128.069 82.175 131.225 82.175V80.175ZM124.586 77.6069C122.852 75.8036 121.945 73.5925 121.875 70.9137L119.875 70.9663C119.958 74.1142 121.045 76.8097 123.144 78.9931L124.586 77.6069ZM121.875 70.94C121.875 69.2046 122.324 67.4888 123.249 65.7813L121.491 64.8287C120.422 66.8012 119.875 68.842 119.875 70.94H121.875ZM123.257 65.7664C124.174 64.003 125.477 62.5575 127.18 61.422L126.07 59.7579C124.093 61.0759 122.559 62.7737 121.483 64.8436L123.257 65.7664ZM127.18 61.422C128.843 60.3132 130.755 59.75 132.95 59.75V57.75C130.391 57.75 128.087 58.4135 126.07 59.7579L127.18 61.422Z" fill="#1F62AE"/>
<path d="M361.376 109.824H381.074C386.552 109.824 390.923 105.729 390.923 100.748V83.7157C390.923 78.8687 386.422 75.2416 381.074 74.4225C374.471 73.4363 367.296 73.4864 361.376 74.439C353.039 75.7763 351.527 78.5678 351.527 83.7326V87.3779H371.243V92.8084H344.131C338.395 92.8084 333.378 95.934 331.811 101.868C330.003 108.671 329.93 112.916 331.811 120.02C333.213 125.302 336.551 129.079 342.287 129.079H349.056V120.923C349.056 115.022 354.681 109.824 361.376 109.824Z" fill="#347AB4"/>
<path d="M349.056 130.778H342.287C336.129 130.778 331.761 127.099 329.988 120.417C328.085 113.234 328.085 108.63 329.988 101.47C330.835 98.2611 332.658 95.5977 335.259 93.7702C337.735 92.0293 340.803 91.1092 344.131 91.1092H369.368V89.0771H351.527C350.492 89.0771 349.652 88.3164 349.652 87.3779V83.7326C349.652 81.3615 349.919 78.6538 351.898 76.5486C353.67 74.6635 356.493 73.4968 361.049 72.766C364.145 72.2678 367.636 72.0044 371.142 72.0044C374.64 72.0044 378.084 72.254 381.379 72.7461C384.443 73.2154 387.263 74.4961 389.326 76.3534C391.565 78.3695 392.798 80.9842 392.798 83.7159V100.748C392.798 106.69 387.539 111.523 381.074 111.523H361.376C355.812 111.523 350.931 115.916 350.931 120.923V129.079C350.931 130.018 350.091 130.778 349.056 130.778ZM344.131 94.5077C338.841 94.5077 334.917 97.407 333.634 102.263C331.848 108.986 331.848 112.879 333.634 119.623C334.573 123.161 336.837 127.38 342.287 127.38H347.181V120.923C347.181 117.649 348.71 114.383 351.378 111.96C354.102 109.487 357.652 108.125 361.376 108.125H381.074C385.471 108.125 389.048 104.815 389.048 100.748V83.7157C389.048 79.5477 384.879 76.7286 380.761 76.098C377.675 75.637 374.436 75.4027 371.142 75.4027C367.852 75.4027 364.588 75.648 361.704 76.1121C354.221 77.3124 353.402 79.4577 353.402 83.7326V85.6787H371.243C372.279 85.6787 373.118 86.4394 373.118 87.3779V92.8084C373.118 93.7469 372.279 94.5077 371.243 94.5077H344.131Z" fill="#1F62AE"/>
<path d="M414.058 104.577C412.637 99.4121 409.945 95.5175 404.209 95.5175H396.813V103.44C396.813 109.591 391.059 114.773 384.493 114.773H364.795C359.409 114.773 354.946 118.952 354.946 123.849V140.864C354.946 145.711 359.594 148.553 364.795 149.94C371.029 151.595 377.023 151.896 384.493 149.94C389.454 148.636 394.342 146.013 394.342 140.864V137.297H374.663V131.788H404.209C409.945 131.788 412.066 128.161 414.058 122.729C416.123 117.129 416.031 111.747 414.058 104.577Z" fill="white"/>
<path d="M374.581 152.996C371.253 152.996 367.88 152.53 364.268 151.571C357.047 149.644 353.071 145.842 353.071 140.864V123.849C353.071 118.008 358.44 113.073 364.795 113.073H384.493C390.057 113.073 394.938 108.572 394.938 103.44V95.5175C394.938 94.579 395.778 93.8183 396.813 93.8183H404.209C407.448 93.8183 410.124 94.8852 412.161 96.9897C413.799 98.6813 415.014 101.029 415.877 104.166C417.975 111.789 417.963 117.502 415.836 123.268C413.94 128.437 411.48 133.487 404.209 133.487H376.537V135.597H394.342C395.377 135.597 396.217 136.358 396.217 137.297V140.864C396.217 144.406 394.273 149.139 385.015 151.573C381.356 152.53 377.943 152.996 374.581 152.996ZM364.795 116.472C360.473 116.472 356.821 119.85 356.821 123.849V140.864C356.821 145.369 362.149 147.463 365.325 148.31C368.632 149.188 371.574 149.597 374.581 149.597C377.586 149.597 380.658 149.176 383.972 148.308C389.608 146.826 392.467 144.322 392.467 140.864V138.996H374.663C373.627 138.996 372.788 138.235 372.788 137.296V131.788C372.788 130.85 373.627 130.089 374.663 130.089H404.209C408.174 130.089 410.06 128.244 412.278 122.193C414.189 117.014 414.177 112.031 412.238 104.988C410.76 99.6131 408.284 97.2165 404.209 97.2165H398.688V103.44C398.688 110.504 392.188 116.472 384.493 116.472H364.795V116.472Z" fill="#3B76B8"/>
<path d="M360.14 84.224C358.175 84.224 356.582 82.7642 356.582 80.9676C356.6 79.1549 358.175 77.6951 360.14 77.6951C362.087 77.6951 363.698 79.1708 363.698 80.9676C363.698 82.7642 362.105 84.224 360.14 84.224Z" fill="white"/>
<path d="M384.045 147.177C382.08 147.177 380.487 145.717 380.487 143.921C380.505 142.108 382.08 140.648 384.045 140.648C385.992 140.648 387.603 142.124 387.603 143.921C387.603 145.717 386.01 147.177 384.045 147.177Z" fill="#1F62AE"/>
</svg>
