<svg width="645" height="293" viewBox="0 0 645 293" fill="none" xmlns="http://www.w3.org/2000/svg">
<path d="M72.145 56.705C78.0483 56.705 82.6867 58.66 86.06 62.57C89.4333 66.48 91.12 71.8083 91.12 78.555C91.12 82.1583 90.6217 85.9533 89.625 89.94C87.325 99.4467 83.0317 106.692 76.745 111.675C70.4583 116.582 63.175 119.035 54.895 119.035C49.605 119.035 45.005 117.923 41.095 115.7L37.415 128.005C37.1083 128.848 36.955 129.653 36.955 130.42C36.955 131.263 37.1467 131.953 37.53 132.49C37.9133 133.103 38.4117 133.678 39.025 134.215C39.6383 134.828 40.0217 135.327 40.175 135.71C40.405 136.093 40.4433 136.553 40.29 137.09C39.9833 138.087 39.255 138.777 38.105 139.16C36.955 139.62 35.1917 139.85 32.815 139.85H6.48C4.48667 139.85 3.06833 139.505 2.225 138.815C1.305 138.202 1.03667 137.397 1.42 136.4C1.57333 135.787 1.84167 135.288 2.225 134.905C2.60833 134.522 3.145 134.177 3.835 133.87C4.985 133.103 5.905 132.298 6.595 131.455C7.285 130.688 7.89833 129.423 8.435 127.66L25.225 72.575C25.455 71.885 25.57 71.31 25.57 70.85C25.57 70.0067 25.3783 69.355 24.995 68.895C24.6117 68.3583 24.0367 67.8217 23.27 67.285C22.5033 66.6717 21.9667 66.135 21.66 65.675C21.3533 65.215 21.315 64.6017 21.545 63.835C22.005 62.0717 24.42 60.5383 28.79 59.235C33.16 57.855 37.7217 57.165 42.475 57.165C45.8483 57.165 48.6083 58.0083 50.755 59.695C52.9783 61.3817 54.2433 63.72 54.55 66.71C59.7633 60.04 65.6283 56.705 72.145 56.705ZM58.805 90.86C60.645 84.0367 61.565 79.3217 61.565 76.715C61.565 75.105 61.2967 74.07 60.76 73.61C60.3 73.0733 59.61 72.805 58.69 72.805C58 72.805 57.1183 73.15 56.045 73.84C54.9717 74.4533 53.8983 75.5267 52.825 77.06L43.74 107.19C44.66 108.11 45.7717 108.57 47.075 108.57C49.145 108.57 51.1 107.42 52.94 105.12C54.8567 102.743 56.8117 97.99 58.805 90.86Z" fill="#1F62AE"/>
<path d="M202.13 101.55V108.48H166.22V101.55H202.13Z" fill="white"/>
<path d="M202.13 101.55H203.13V100.55H202.13V101.55ZM202.13 108.48V109.48H203.13V108.48H202.13ZM166.22 108.48H165.22V109.48H166.22V108.48ZM166.22 101.55V100.55H165.22V101.55H166.22ZM201.13 101.55V108.48H203.13V101.55H201.13ZM202.13 107.48H166.22V109.48H202.13V107.48ZM167.22 108.48V101.55H165.22V108.48H167.22ZM166.22 102.55H202.13V100.55H166.22V102.55Z" fill="#1F62AE"/>
<path d="M322.985 89.495C322.985 96.3183 320.608 103.295 315.855 110.425C311.102 117.555 305.083 123.458 297.8 128.135C290.593 132.735 283.502 135.035 276.525 135.035C271.005 135.035 266.328 134.077 262.495 132.16C258.662 130.243 256.17 127.483 255.02 123.88C252.183 127.33 249.04 129.937 245.59 131.7C242.14 133.463 238.537 134.345 234.78 134.345C229.567 134.345 225.312 133.08 222.015 130.55C218.795 127.943 217.185 124.148 217.185 119.165C217.185 116.558 217.607 113.875 218.45 111.115L224.89 88.575C225.043 87.9617 225.12 87.5017 225.12 87.195C225.12 86.4283 224.928 85.7767 224.545 85.24C224.162 84.7033 223.625 84.1283 222.935 83.515C221.785 82.5183 221.21 81.6367 221.21 80.87C221.133 79.7967 221.785 78.6467 223.165 77.42C224.545 76.1933 226.462 75.1967 228.915 74.43C231.445 73.5867 234.282 73.165 237.425 73.165C242.562 73.165 246.548 74.43 249.385 76.96C252.298 79.4133 253.755 82.6333 253.755 86.62C253.755 88.3833 253.448 90.3 252.835 92.37L246.97 111.92C246.663 112.993 246.51 113.722 246.51 114.105C246.51 115.102 246.778 115.868 247.315 116.405C247.928 116.942 248.733 117.21 249.73 117.21C251.11 117.21 252.26 116.75 253.18 115.83C254.177 114.833 255.135 113.262 256.055 111.115L262.61 88.575C262.763 87.9617 262.84 87.5017 262.84 87.195C262.84 86.4283 262.648 85.7767 262.265 85.24C261.882 84.7033 261.345 84.1283 260.655 83.515C259.505 82.5183 258.93 81.6367 258.93 80.87C258.853 79.7967 259.505 78.6467 260.885 77.42C262.265 76.1933 264.182 75.1967 266.635 74.43C269.165 73.5867 272.002 73.165 275.145 73.165C280.358 73.165 284.383 74.3917 287.22 76.845C290.057 79.2983 291.475 82.5567 291.475 86.62C291.475 88.23 291.168 90.1467 290.555 92.37L283.08 116.98C282.927 117.363 282.85 117.938 282.85 118.705C282.85 119.702 283.195 120.468 283.885 121.005C284.575 121.542 285.533 121.81 286.76 121.81C288.447 121.81 290.402 121.082 292.625 119.625C294.925 118.092 297.148 115.945 299.295 113.185C301.518 110.348 303.32 107.013 304.7 103.18C301.633 100.497 299.448 97.8517 298.145 95.245C296.918 92.6383 296.305 89.955 296.305 87.195C296.305 83.285 297.378 79.9883 299.525 77.305C301.672 74.545 304.777 73.165 308.84 73.165C312.903 73.165 316.277 74.6217 318.96 77.535C321.643 80.4483 322.985 84.435 322.985 89.495ZM493.154 73.165C497.448 73.165 500.859 74.4683 503.389 77.075C505.996 79.6817 507.299 82.9017 507.299 86.735C507.299 88.1917 507.146 89.5333 506.839 90.76C506.073 93.9033 504.616 96.3183 502.469 98.005C500.323 99.6917 497.754 100.535 494.764 100.535C491.851 100.535 489.628 99.845 488.094 98.465C486.638 97.085 485.334 95.245 484.184 92.945C483.571 91.6417 482.996 90.6833 482.459 90.07C481.923 89.4567 481.309 89.15 480.619 89.15C479.853 89.15 479.163 89.4567 478.549 90.07C478.013 90.6833 477.514 91.7567 477.054 93.29L468.199 122.04C468.046 122.423 467.969 122.998 467.969 123.765C467.969 124.762 468.238 125.605 468.774 126.295C469.388 126.908 470.193 127.522 471.189 128.135C472.109 128.748 472.723 129.247 473.029 129.63C473.336 130.013 473.451 130.512 473.374 131.125C473.221 132.122 472.646 132.85 471.649 133.31C470.729 133.77 469.119 134 466.819 134H437.379C435.386 134 433.968 133.693 433.124 133.08C432.204 132.39 431.859 131.508 432.089 130.435C432.396 129.515 433.201 128.71 434.504 128.02C435.654 127.407 436.613 126.678 437.379 125.835C438.146 124.992 438.798 123.65 439.334 121.81L449.569 88.575C449.723 88.1917 449.799 87.655 449.799 86.965C449.799 86.1217 449.608 85.47 449.224 85.01C448.918 84.55 448.381 83.975 447.614 83.285C446.848 82.6717 446.311 82.135 446.004 81.675C445.698 81.215 445.659 80.6017 445.889 79.835C446.349 78.0717 448.764 76.5383 453.134 75.235C457.504 73.855 462.066 73.165 466.819 73.165C469.963 73.165 472.569 73.8933 474.639 75.35C476.709 76.73 478.051 78.7233 478.664 81.33C482.344 75.8867 487.174 73.165 493.154 73.165ZM570.358 73.165C574.728 73.165 578.216 74.3917 580.823 76.845C583.506 79.2217 584.848 82.135 584.848 85.585C584.848 89.265 583.736 92.14 581.513 94.21C579.29 96.28 576.376 97.315 572.773 97.315C569.553 97.315 567.061 96.51 565.298 94.9C563.535 93.2133 562.691 91.335 562.768 89.265C562.001 89.1117 561.35 89.4183 560.813 90.185C560.276 90.9517 559.701 92.4467 559.088 94.67C558.705 96.1267 557.976 97.4683 556.903 98.695C562.116 99.0783 565.988 100.267 568.518 102.26C571.048 104.253 572.313 106.822 572.313 109.965C572.313 111.498 572.045 113.032 571.508 114.565L570.588 118.13C570.435 118.513 570.358 119.012 570.358 119.625C570.358 120.698 570.856 121.235 571.853 121.235C572.773 121.235 573.54 120.852 574.153 120.085C574.843 119.242 575.303 118.82 575.533 118.82C575.916 118.82 576.223 119.088 576.453 119.625C576.683 120.085 576.798 120.66 576.798 121.35C576.875 123.573 576.185 125.758 574.728 127.905C573.348 129.975 571.201 131.7 568.288 133.08C565.451 134.383 562.001 135.035 557.938 135.035C553.031 135.035 548.93 133.808 545.633 131.355C542.413 128.902 540.803 125.682 540.803 121.695C540.803 120.238 541.11 118.59 541.723 116.75L543.908 111C544.291 109.62 544.483 108.623 544.483 108.01C544.483 107.013 544.138 106.285 543.448 105.825C542.835 105.365 541.838 105.135 540.458 105.135H538.158L532.983 122.04C532.753 122.96 532.638 123.765 532.638 124.455C532.638 125.452 532.83 126.257 533.213 126.87C533.596 127.407 534.133 127.943 534.823 128.48C535.36 129.017 535.743 129.477 535.973 129.86C536.203 130.167 536.241 130.588 536.088 131.125C535.705 132.122 534.938 132.85 533.788 133.31C532.638 133.77 530.875 134 528.498 134H502.278C500.285 134 498.828 133.693 497.908 133.08C496.988 132.39 496.681 131.508 496.988 130.435C497.295 129.515 498.1 128.71 499.403 128.02C500.553 127.407 501.511 126.678 502.278 125.835C503.045 124.992 503.696 123.65 504.233 121.81L521.713 64.425C521.943 63.735 522.058 63.16 522.058 62.7C522.058 61.8567 521.828 61.1667 521.368 60.63C520.985 60.0933 520.448 59.5567 519.758 59.02C518.991 58.4067 518.416 57.87 518.033 57.41C517.726 56.95 517.688 56.3367 517.918 55.57C518.378 53.8067 520.793 52.2733 525.163 50.97C529.533 49.6667 534.095 49.015 538.848 49.015C543.295 49.015 546.553 49.8583 548.623 51.545C550.693 53.155 551.728 55.4167 551.728 58.33C551.728 60.0933 551.46 61.78 550.923 63.39L540.918 96.05H544.713C546.246 96.05 547.473 95.59 548.393 94.67C549.39 93.75 550.156 92.4083 550.693 90.645C552.61 84.9717 555.101 80.64 558.168 77.65C561.235 74.66 565.298 73.165 570.358 73.165Z" fill="#1F62AE"/>
<path d="M128.245 79.165C132.692 79.165 135.95 80.0083 138.02 81.695C140.09 83.3817 141.125 85.6817 141.125 88.595C141.125 90.3583 140.857 92.045 140.32 93.655L129.74 128.04C129.51 128.96 129.395 129.765 129.395 130.455C129.395 131.452 129.587 132.257 129.97 132.87C130.353 133.407 130.89 133.943 131.58 134.48C132.117 135.017 132.5 135.477 132.73 135.86C132.96 136.167 132.998 136.588 132.845 137.125C132.462 138.122 131.695 138.85 130.545 139.31C129.395 139.77 127.632 140 125.255 140H99.035C97.0417 140 95.585 139.693 94.665 139.08C93.745 138.39 93.4383 137.508 93.745 136.435C94.0517 135.515 94.8567 134.71 96.16 134.02C97.31 133.407 98.2683 132.678 99.035 131.835C99.8017 130.992 100.453 129.65 100.99 127.81L110.995 94.575C111.225 93.885 111.34 93.31 111.34 92.85C111.34 92.0067 111.148 91.355 110.765 90.895C110.382 90.3583 109.807 89.8217 109.04 89.285C108.273 88.6717 107.737 88.135 107.43 87.675C107.123 87.215 107.085 86.6017 107.315 85.835C107.775 84.0717 110.19 82.5383 114.56 81.235C118.93 79.855 123.492 79.165 128.245 79.165ZM135.95 53.75C138.94 53.75 141.432 54.7467 143.425 56.74C145.418 58.6567 146.415 61.0333 146.415 63.87C146.415 65.8633 145.878 67.8183 144.805 69.735C143.808 71.6517 142.352 73.2233 140.435 74.45C138.595 75.6 136.525 76.175 134.225 76.175C131.312 76.175 128.858 75.2167 126.865 73.3C124.948 71.3067 123.952 68.8533 123.875 65.94C123.875 64.0233 124.373 62.145 125.37 60.305C126.367 58.3883 127.785 56.8167 129.625 55.59C131.465 54.3633 133.573 53.75 135.95 53.75Z" fill="white"/>
<path d="M140.32 93.655L139.371 93.3388L139.368 93.3498L139.364 93.3609L140.32 93.655ZM129.74 128.04L128.784 127.746L128.776 127.771L128.77 127.797L129.74 128.04ZM129.97 132.87L129.122 133.4L129.138 133.426L129.156 133.451L129.97 132.87ZM131.58 134.48L132.287 133.773L132.243 133.729L132.194 133.691L131.58 134.48ZM132.73 135.86L131.873 136.374L131.899 136.419L131.93 136.46L132.73 135.86ZM132.845 137.125L133.778 137.484L133.794 137.442L133.807 137.4L132.845 137.125ZM130.545 139.31L130.916 140.238L130.916 140.238L130.545 139.31ZM94.665 139.08L94.065 139.88L94.0872 139.897L94.1103 139.912L94.665 139.08ZM93.745 136.435L92.7963 136.119L92.7894 136.139L92.7835 136.16L93.745 136.435ZM96.16 134.02L96.6279 134.904L96.6306 134.902L96.16 134.02ZM99.035 131.835L98.2951 131.162L99.035 131.835ZM100.99 127.81L100.032 127.522L100.03 127.53L100.99 127.81ZM110.995 94.575L110.046 94.2588L110.042 94.2727L110.037 94.2867L110.995 94.575ZM110.765 90.895L109.951 91.4762L109.973 91.5066L109.997 91.5352L110.765 90.895ZM109.04 89.285L108.415 90.0659L108.44 90.0859L108.467 90.1042L109.04 89.285ZM107.43 87.675L106.598 88.2297L106.598 88.2297L107.43 87.675ZM107.315 85.835L108.273 86.1223L108.278 86.105L108.283 86.0874L107.315 85.835ZM114.56 81.235L114.846 82.1933L114.853 82.191L114.861 82.1886L114.56 81.235ZM143.425 56.74L142.718 57.4471L142.725 57.454L142.732 57.4608L143.425 56.74ZM144.805 69.735L143.932 69.2464L143.925 69.2599L143.918 69.2736L144.805 69.735ZM140.435 74.45L140.965 75.298L140.974 75.2923L140.435 74.45ZM126.865 73.3L126.144 73.9931L126.158 74.0072L126.172 74.0208L126.865 73.3ZM123.875 65.94H122.875V65.9531L122.875 65.9663L123.875 65.94ZM125.37 60.305L126.249 60.7813L126.253 60.7738L126.257 60.7664L125.37 60.305ZM129.625 55.59L130.18 56.422L130.18 56.422L129.625 55.59ZM128.245 80.165C132.602 80.165 135.582 80.9982 137.388 82.4702L138.652 80.9198C136.318 79.0185 132.781 78.165 128.245 78.165V80.165ZM137.388 82.4702C139.202 83.9481 140.125 85.9511 140.125 88.595H142.125C142.125 85.4122 140.978 82.8152 138.652 80.9198L137.388 82.4702ZM140.125 88.595C140.125 90.2551 139.873 91.8347 139.371 93.3388L141.269 93.9712C141.841 92.2553 142.125 90.4616 142.125 88.595H140.125ZM139.364 93.3609L128.784 127.746L130.696 128.334L141.276 93.9491L139.364 93.3609ZM128.77 127.797C128.527 128.769 128.395 129.659 128.395 130.455H130.395C130.395 129.871 130.493 129.151 130.71 128.283L128.77 127.797ZM128.395 130.455C128.395 131.571 128.609 132.578 129.122 133.4L130.818 132.34C130.565 131.935 130.395 131.332 130.395 130.455H128.395ZM129.156 133.451C129.611 134.087 130.223 134.691 130.966 135.269L132.194 133.691C131.557 133.195 131.096 132.726 130.784 132.289L129.156 133.451ZM130.873 135.187C131.386 135.7 131.704 136.093 131.873 136.374L133.587 135.346C133.296 134.86 132.847 134.333 132.287 133.773L130.873 135.187ZM131.93 136.46C131.922 136.45 131.931 136.451 131.935 136.497C131.94 136.553 131.936 136.665 131.883 136.85L133.807 137.4C134.005 136.706 134.022 135.916 133.53 135.26L131.93 136.46ZM131.912 136.766C131.644 137.461 131.11 138.007 130.174 138.382L130.916 140.238C132.28 139.693 133.279 138.783 133.778 137.484L131.912 136.766ZM130.174 138.382C129.206 138.769 127.6 139 125.255 139V141C127.664 141 129.584 140.771 130.916 140.238L130.174 138.382ZM125.255 139H99.035V141H125.255V139ZM99.035 139C97.1015 139 95.8896 138.695 95.2197 138.248L94.1103 139.912C95.2804 140.692 96.9818 141 99.035 141V139ZM95.265 138.28C94.927 138.026 94.7637 137.786 94.6895 137.573C94.6162 137.362 94.5984 137.088 94.7065 136.71L92.7835 136.16C92.5849 136.855 92.5671 137.559 92.8005 138.23C93.033 138.898 93.483 139.444 94.065 139.88L95.265 138.28ZM94.6937 136.751C94.8854 136.176 95.4363 135.535 96.6279 134.904L95.6921 133.136C94.277 133.885 93.2179 134.854 92.7963 136.119L94.6937 136.751ZM96.6306 134.902C97.8674 134.243 98.921 133.447 99.7749 132.508L98.2951 131.162C97.6157 131.91 96.7526 132.571 95.6894 133.138L96.6306 134.902ZM99.7749 132.508C100.691 131.5 101.396 129.989 101.95 128.09L100.03 127.53C99.5106 129.311 98.9124 130.483 98.2951 131.162L99.7749 132.508ZM101.948 128.098L111.953 94.8633L110.037 94.2867L100.032 127.522L101.948 128.098ZM111.944 94.8912C112.19 94.1513 112.34 93.4612 112.34 92.85H110.34C110.34 93.1587 110.26 93.6187 110.046 94.2588L111.944 94.8912ZM112.34 92.85C112.34 91.867 112.117 90.9556 111.533 90.2548L109.997 91.5352C110.179 91.7544 110.34 92.1463 110.34 92.85H112.34ZM111.579 90.3138C111.108 89.6548 110.437 89.0425 109.613 88.4658L108.467 90.1042C109.176 90.6008 109.655 91.0618 109.951 91.4762L111.579 90.3138ZM109.665 88.5041C108.926 87.9134 108.484 87.4528 108.262 87.1203L106.598 88.2297C106.99 88.8172 107.62 89.4299 108.415 90.0659L109.665 88.5041ZM108.262 87.1203C108.184 87.0038 108.089 86.7357 108.273 86.1223L106.357 85.5477C106.081 86.4676 106.062 87.4262 106.598 88.2297L108.262 87.1203ZM108.283 86.0874C108.421 85.5577 108.897 84.912 110.007 84.2067C111.105 83.5097 112.703 82.8323 114.846 82.1933L114.274 80.2767C112.047 80.9411 110.252 81.682 108.935 82.5183C107.631 83.3464 106.669 84.349 106.347 85.5826L108.283 86.0874ZM114.861 82.1886C119.13 80.8405 123.59 80.165 128.245 80.165V78.165C123.393 78.165 118.73 78.8695 114.259 80.2814L114.861 82.1886ZM135.95 54.75C138.693 54.75 140.924 55.6536 142.718 57.4471L144.132 56.0329C141.939 53.8398 139.187 52.75 135.95 52.75V54.75ZM142.732 57.4608C144.524 59.1835 145.415 61.2974 145.415 63.87H147.415C147.415 60.7692 146.313 58.1298 144.118 56.0192L142.732 57.4608ZM145.415 63.87C145.415 65.6752 144.931 67.4634 143.932 69.2464L145.678 70.2236C146.826 68.1733 147.415 66.0515 147.415 63.87H145.415ZM143.918 69.2736C143.006 71.0267 141.673 72.4702 139.896 73.6077L140.974 75.2923C143.03 73.9765 144.61 72.2767 145.692 70.1964L143.918 69.2736ZM139.905 73.602C138.234 74.6466 136.349 75.175 134.225 75.175V77.175C136.701 77.175 138.956 76.5534 140.965 75.298L139.905 73.602ZM134.225 75.175C131.555 75.175 129.354 74.3064 127.558 72.5792L126.172 74.0208C128.362 76.1269 131.069 77.175 134.225 77.175V75.175ZM127.586 72.6069C125.852 70.8036 124.945 68.5925 124.875 65.9137L122.875 65.9663C122.958 69.1142 124.045 71.8097 126.144 73.9931L127.586 72.6069ZM124.875 65.94C124.875 64.2046 125.324 62.4888 126.249 60.7813L124.491 59.8287C123.422 61.8012 122.875 63.842 122.875 65.94H124.875ZM126.257 60.7664C127.174 59.003 128.477 57.5575 130.18 56.422L129.07 54.7579C127.093 56.0759 125.559 57.7737 124.483 59.8436L126.257 60.7664ZM130.18 56.422C131.843 55.3132 133.755 54.75 135.95 54.75V52.75C133.391 52.75 131.087 53.4135 129.07 54.7579L130.18 56.422Z" fill="#1F62AE"/>
<path d="M364.376 104.824H384.074C389.552 104.824 393.923 100.729 393.923 95.7479V78.7158C393.923 73.8688 389.422 70.2416 384.074 69.4226C377.471 68.4364 370.296 68.4865 364.376 69.4391C356.039 70.7763 354.527 73.5678 354.527 78.7326V82.3779H374.243V87.8085H347.131C341.395 87.8085 336.378 90.934 334.811 96.8679C333.003 103.671 332.93 107.916 334.811 115.02C336.213 120.302 339.551 124.079 345.287 124.079H352.056V115.923C352.056 110.023 357.681 104.824 364.376 104.824Z" fill="#347AB4"/>
<path d="M352.056 125.778H345.287C339.129 125.778 334.761 122.099 332.988 115.417C331.085 108.234 331.085 103.63 332.988 96.47C333.835 93.2611 335.658 90.5977 338.259 88.7702C340.735 87.0293 343.803 86.1092 347.131 86.1092H372.368V84.0771H354.527C353.492 84.0771 352.652 83.3164 352.652 82.3779V78.7326C352.652 76.3615 352.919 73.6538 354.898 71.5486C356.67 69.6635 359.493 68.4968 364.049 67.766C367.145 67.2678 370.636 67.0044 374.142 67.0044C377.64 67.0044 381.084 67.254 384.379 67.7461C387.443 68.2154 390.263 69.4961 392.326 71.3534C394.565 73.3695 395.798 75.9843 395.798 78.7159V95.748C395.798 101.69 390.539 106.523 384.074 106.523H364.376C358.812 106.523 353.931 110.916 353.931 115.923V124.079C353.931 125.018 353.091 125.778 352.056 125.778ZM347.131 89.5077C341.841 89.5077 337.917 92.407 336.634 97.2634C334.848 103.986 334.848 107.879 336.634 114.623C337.573 118.161 339.837 122.38 345.287 122.38H350.181V115.923C350.181 112.649 351.71 109.383 354.378 106.961C357.102 104.487 360.652 103.125 364.376 103.125H384.074C388.471 103.125 392.048 99.8155 392.048 95.7479V78.7157C392.048 74.5477 387.879 71.7286 383.761 71.098C380.675 70.637 377.436 70.4027 374.142 70.4027C370.852 70.4027 367.588 70.648 364.704 71.1121C357.221 72.3124 356.402 74.4577 356.402 78.7326V80.6787H374.243C375.279 80.6787 376.118 81.4394 376.118 82.3779V87.8084C376.118 88.7469 375.279 89.5077 374.243 89.5077H347.131Z" fill="#1F62AE"/>
<path d="M417.058 99.5769C415.637 94.4121 412.945 90.5175 407.209 90.5175H399.813V98.4403C399.813 104.591 394.059 109.773 387.493 109.773H367.795C362.409 109.773 357.946 113.952 357.946 118.849V135.864C357.946 140.711 362.594 143.553 367.795 144.94C374.029 146.595 380.023 146.896 387.493 144.94C392.454 143.636 397.342 141.013 397.342 135.864V132.297H377.663V126.788H407.209C412.945 126.788 415.066 123.161 417.058 117.729C419.123 112.129 419.031 106.747 417.058 99.5769Z" fill="white"/>
<path d="M377.581 147.996C374.253 147.996 370.88 147.53 367.268 146.571C360.047 144.644 356.071 140.842 356.071 135.864V118.849C356.071 113.008 361.44 108.073 367.795 108.073H387.493C393.057 108.073 397.938 103.572 397.938 98.4403V90.5175C397.938 89.579 398.778 88.8183 399.813 88.8183H407.209C410.448 88.8183 413.124 89.8852 415.161 91.9897C416.799 93.6813 418.014 96.0288 418.877 99.1659C420.975 106.789 420.963 112.502 418.836 118.268C416.94 123.437 414.48 128.487 407.209 128.487H379.537V130.597H397.342C398.377 130.597 399.217 131.358 399.217 132.297V135.864C399.217 139.406 397.273 144.139 388.015 146.573C384.356 147.53 380.943 147.996 377.581 147.996ZM367.795 111.472C363.473 111.472 359.821 114.85 359.821 118.849V135.864C359.821 140.369 365.149 142.463 368.325 143.31C371.632 144.188 374.574 144.597 377.581 144.597C380.586 144.597 383.658 144.176 386.972 143.308C392.608 141.826 395.467 139.322 395.467 135.864V133.996H377.663C376.627 133.996 375.788 133.235 375.788 132.296V126.788C375.788 125.85 376.627 125.089 377.663 125.089H407.209C411.174 125.089 413.06 123.244 415.278 117.193C417.189 112.014 417.177 107.031 415.238 99.9879C413.76 94.6131 411.284 92.2166 407.209 92.2166H401.688V98.4401C401.688 105.504 395.188 111.472 387.493 111.472H367.795V111.472Z" fill="#3B76B8"/>
<path d="M363.14 79.224C361.175 79.224 359.582 77.7642 359.582 75.9676C359.6 74.1549 361.175 72.6951 363.14 72.6951C365.087 72.6951 366.698 74.1708 366.698 75.9676C366.698 77.7642 365.105 79.224 363.14 79.224Z" fill="white"/>
<path d="M387.045 142.177C385.08 142.177 383.487 140.717 383.487 138.921C383.505 137.108 385.08 135.648 387.045 135.648C388.992 135.648 390.603 137.124 390.603 138.921C390.603 140.717 389.01 142.177 387.045 142.177Z" fill="#1F62AE"/>
</svg>
